<?xml version="1.0" encoding="UTF-8" standalone="no"?><svg xmlns="http://www.w3.org/2000/svg" xmlns:xlink="http://www.w3.org/1999/xlink" clip-rule="evenodd" stroke-miterlimit="10" viewBox="0 0 1024 768"><desc>SVG generated by Keynote</desc><defs></defs><g transform="matrix(1.00, 0.00, -0.00, -1.00, 0.0, 768.0)"><g><clipPath id="clip0x608000ab6fe0"><path d="M 0.0 768.0 L 1024.0 768.0 L 1024.0 0.0 L 0.0 0.0 Z M 0.0 768.0 "></path></clipPath><g clip-path="url(#clip0x608000ab6fe0)"><image xlink:href="C582C7F4F5551F9ACC4D88F3A20145CF.jpeg" width="2048.00" height="1536.00" transform="matrix(0.50, 0.00, -0.00, -0.50, 0.0, 768.0)"></image></g></g><text xml:space="preserve" font-family="Baskerville,Baskerville" font-size="36.0" fill="#72665A" transform="matrix(1.00, 0.00, -0.00, -1.00, 147.8, 164.9)">H</text><text xml:space="preserve" font-family="Baskerville,Baskerville" font-size="36.0" fill="#72665A" transform="matrix(1.00, 0.00, -0.00, -1.00, 176.7, 164.9)">T</text><text xml:space="preserve" font-family="Baskerville,Baskerville" font-size="36.0" fill="#72665A" transform="matrix(1.00, 0.00, -0.00, -1.00, 201.8, 164.9)">M</text><text xml:space="preserve" font-family="Baskerville,Baskerville" font-size="36.0" fill="#72665A" transform="matrix(1.00, 0.00, -0.00, -1.00, 235.2, 164.9)">L</text><text xml:space="preserve" font-family="Baskerville,Baskerville" font-size="36.0" fill="#72665A" transform="matrix(1.00, 0.00, -0.00, -1.00, 256.9, 164.9)"> </text><text xml:space="preserve" font-family="Baskerville,Baskerville" font-size="36.0" fill="#72665A" transform="matrix(1.00, 0.00, -0.00, -1.00, 265.9, 164.9)">I</text><text xml:space="preserve" font-family="Baskerville,Baskerville" font-size="36.0" fill="#72665A" transform="matrix(1.00, 0.00, -0.00, -1.00, 278.7, 164.9)">n</text><text xml:space="preserve" font-family="Baskerville,Baskerville" font-size="36.0" fill="#72665A" transform="matrix(1.00, 0.00, -0.00, -1.00, 297.8, 164.9)">t</text><text xml:space="preserve" font-family="Baskerville,Baskerville" font-size="36.0" fill="#72665A" transform="matrix(1.00, 0.00, -0.00, -1.00, 308.3, 164.9)">e</text><text xml:space="preserve" font-family="Baskerville,Baskerville" font-size="36.0" fill="#72665A" transform="matrix(1.00, 0.00, -0.00, -1.00, 324.0, 164.9)">r</text><text xml:space="preserve" font-family="Baskerville,Baskerville" font-size="36.0" fill="#72665A" transform="matrix(1.00, 0.00, -0.00, -1.00, 337.2, 164.9)">f</text><text xml:space="preserve" font-family="Baskerville,Baskerville" font-size="36.0" fill="#72665A" transform="matrix(1.00, 0.00, -0.00, -1.00, 346.9, 164.9)">a</text><text xml:space="preserve" font-family="Baskerville,Baskerville" font-size="36.0" fill="#72665A" transform="matrix(1.00, 0.00, -0.00, -1.00, 363.8, 164.9)">c</text><text xml:space="preserve" font-family="Baskerville,Baskerville" font-size="36.0" fill="#72665A" transform="matrix(1.00, 0.00, -0.00, -1.00, 379.2, 164.9)">e</text><text xml:space="preserve" font-family="Baskerville,Baskerville" font-size="36.0" fill="#72665A" transform="matrix(1.00, 0.00, -0.00, -1.00, 394.9, 164.9)"> </text><text xml:space="preserve" font-family="Baskerville,Baskerville" font-size="36.0" fill="#72665A" transform="matrix(1.00, 0.00, -0.00, -1.00, 403.9, 164.9)">a</text><text xml:space="preserve" font-family="Baskerville,Baskerville" font-size="36.0" fill="#72665A" transform="matrix(1.00, 0.00, -0.00, -1.00, 420.8, 164.9)">f</text><text xml:space="preserve" font-family="Baskerville,Baskerville" font-size="36.0" fill="#72665A" transform="matrix(1.00, 0.00, -0.00, -1.00, 430.5, 164.9)">t</text><text xml:space="preserve" font-family="Baskerville,Baskerville" font-size="36.0" fill="#72665A" transform="matrix(1.00, 0.00, -0.00, -1.00, 441.0, 164.9)">e</text><text xml:space="preserve" font-family="Baskerville,Baskerville" font-size="36.0" fill="#72665A" transform="matrix(1.00, 0.00, -0.00, -1.00, 456.7, 164.9)">r</text><text xml:space="preserve" font-family="Baskerville,Baskerville" font-size="36.0" fill="#72665A" transform="matrix(1.00, 0.00, -0.00, -1.00, 469.8, 164.9)"> </text><text xml:space="preserve" font-family="Baskerville,Baskerville" font-size="36.0" fill="#72665A" transform="matrix(1.00, 0.00, -0.00, -1.00, 478.8, 164.9)">t</text><text xml:space="preserve" font-family="Baskerville,Baskerville" font-size="36.0" fill="#72665A" transform="matrix(1.00, 0.00, -0.00, -1.00, 489.3, 164.9)">h</text><text xml:space="preserve" font-family="Baskerville,Baskerville" font-size="36.0" fill="#72665A" transform="matrix(1.00, 0.00, -0.00, -1.00, 508.5, 164.9)">e</text><text xml:space="preserve" font-family="Baskerville,Baskerville" font-size="36.0" fill="#72665A" transform="matrix(1.00, 0.00, -0.00, -1.00, 524.2, 164.9)"> </text><text xml:space="preserve" font-family="Baskerville,Baskerville" font-size="36.0" fill="#72665A" transform="matrix(1.00, 0.00, -0.00, -1.00, 533.2, 164.9)">a</text><text xml:space="preserve" font-family="Baskerville,Baskerville" font-size="36.0" fill="#72665A" transform="matrix(1.00, 0.00, -0.00, -1.00, 550.1, 164.9)">l</text><text xml:space="preserve" font-family="Baskerville,Baskerville" font-size="36.0" fill="#72665A" transform="matrix(1.00, 0.00, -0.00, -1.00, 558.7, 164.9)">a</text><text xml:space="preserve" font-family="Baskerville,Baskerville" font-size="36.0" fill="#72665A" transform="matrix(1.00, 0.00, -0.00, -1.00, 575.5, 164.9)">r</text><text xml:space="preserve" font-family="Baskerville,Baskerville" font-size="36.0" fill="#72665A" transform="matrix(1.00, 0.00, -0.00, -1.00, 590.0, 164.9)">m</text><text xml:space="preserve" font-family="Baskerville,Baskerville" font-size="36.0" fill="#72665A" transform="matrix(1.00, 0.00, -0.00, -1.00, 618.8, 164.9)"> </text><text xml:space="preserve" font-family="Baskerville,Baskerville" font-size="36.0" fill="#72665A" transform="matrix(1.00, 0.00, -0.00, -1.00, 627.8, 164.9)">i</text><text xml:space="preserve" font-family="Baskerville,Baskerville" font-size="36.0" fill="#72665A" transform="matrix(1.00, 0.00, -0.00, -1.00, 636.8, 164.9)">s</text><text xml:space="preserve" font-family="Baskerville,Baskerville" font-size="36.0" fill="#72665A" transform="matrix(1.00, 0.00, -0.00, -1.00, 648.9, 164.9)"> </text><text xml:space="preserve" font-family="Baskerville,Baskerville" font-size="36.0" fill="#72665A" transform="matrix(1.00, 0.00, -0.00, -1.00, 657.9, 164.9)">d</text><text xml:space="preserve" font-family="Baskerville,Baskerville" font-size="36.0" fill="#72665A" transform="matrix(1.00, 0.00, -0.00, -1.00, 676.6, 164.9)">i</text><text xml:space="preserve" font-family="Baskerville,Baskerville" font-size="36.0" fill="#72665A" transform="matrix(1.00, 0.00, -0.00, -1.00, 685.6, 164.9)">s</text><text xml:space="preserve" font-family="Baskerville,Baskerville" font-size="36.0" fill="#72665A" transform="matrix(1.00, 0.00, -0.00, -1.00, 697.7, 164.9)">m</text><text xml:space="preserve" font-family="Baskerville,Baskerville" font-size="36.0" fill="#72665A" transform="matrix(1.00, 0.00, -0.00, -1.00, 726.5, 164.9)">i</text><text xml:space="preserve" font-family="Baskerville,Baskerville" font-size="36.0" fill="#72665A" transform="matrix(1.00, 0.00, -0.00, -1.00, 735.5, 164.9)">s</text><text xml:space="preserve" font-family="Baskerville,Baskerville" font-size="36.0" fill="#72665A" transform="matrix(1.00, 0.00, -0.00, -1.00, 747.6, 164.9)">s</text><text xml:space="preserve" font-family="Baskerville,Baskerville" font-size="36.0" fill="#72665A" transform="matrix(1.00, 0.00, -0.00, -1.00, 759.6, 164.9)">e</text><text xml:space="preserve" font-family="Baskerville,Baskerville" font-size="36.0" fill="#72665A" transform="matrix(1.00, 0.00, -0.00, -1.00, 775.3, 164.9)">d</text><text xml:space="preserve" font-family="Baskerville,Baskerville" font-size="36.0" fill="#72665A" transform="matrix(1.00, 0.00, -0.00, -1.00, 794.1, 164.9)">.</text><image xlink:href="../../2D2B594B-7F15-464B-99AC-93FF53B04B36/assets/76B4F65934759929BBC58FDED547F2B3.png" width="1600.00" height="900.00" transform="matrix(0.56, 0.00, -0.00, -0.56, 62.9, 726.0)"></image></g></svg>