<?xml version="1.0" encoding="UTF-8" standalone="no"?><svg xmlns="http://www.w3.org/2000/svg" xmlns:xlink="http://www.w3.org/1999/xlink" clip-rule="evenodd" stroke-miterlimit="10" viewBox="0 0 1024 768"><desc>SVG generated by Keynote</desc><defs></defs><g transform="matrix(1.00, 0.00, -0.00, -1.00, 0.0, 768.0)"><g><clipPath id="clip0x6080008aaaa0"><path d="M 0.0 768.0 L 1024.0 768.0 L 1024.0 0.0 L 0.0 0.0 Z M 0.0 768.0 "></path></clipPath><g clip-path="url(#clip0x6080008aaaa0)"><image xlink:href="../../2D2B594B-7F15-464B-99AC-93FF53B04B36/assets/96AA4918487AB8DC444008AD0CB975D1.jpeg" width="2048.00" height="1536.00" transform="matrix(0.50, 0.00, -0.00, -0.50, 0.0, 768.0)"></image></g></g><text xml:space="preserve" font-family="Baskerville,Baskerville" font-size="58.0" fill="#817463" transform="matrix(1.00, 0.00, -0.00, -1.00, 465.8, 654.3)">A</text><text xml:space="preserve" font-family="Baskerville,Baskerville" font-size="58.0" fill="#817463" transform="matrix(1.00, 0.00, -0.00, -1.00, 505.1, 654.3)">P</text><text xml:space="preserve" font-family="Baskerville,Baskerville" font-size="58.0" fill="#817463" transform="matrix(1.00, 0.00, -0.00, -1.00, 537.7, 654.3)">I</text><text xml:space="preserve" font-family="Baskerville,Baskerville" font-size="40.0" fill="#72665A" transform="matrix(1.00, 0.00, -0.00, -1.00, 76.0, 373.8)">•</text><text xml:space="preserve" font-family="Baskerville,Baskerville" font-size="40.0" fill="#72665A" transform="matrix(1.00, 0.00, -0.00, -1.00, 109.0, 374.8)">G</text><text xml:space="preserve" font-family="Baskerville,Baskerville" font-size="40.0" fill="#72665A" transform="matrix(1.00, 0.00, -0.00, -1.00, 139.8, 374.8)">o</text><text xml:space="preserve" font-family="Baskerville,Baskerville" font-size="40.0" fill="#72665A" transform="matrix(1.00, 0.00, -0.00, -1.00, 159.8, 374.8)">o</text><text xml:space="preserve" font-family="Baskerville,Baskerville" font-size="40.0" fill="#72665A" transform="matrix(1.00, 0.00, -0.00, -1.00, 179.8, 374.8)">g</text><text xml:space="preserve" font-family="Baskerville,Baskerville" font-size="40.0" fill="#72665A" transform="matrix(1.00, 0.00, -0.00, -1.00, 199.0, 374.8)">l</text><text xml:space="preserve" font-family="Baskerville,Baskerville" font-size="40.0" fill="#72665A" transform="matrix(1.00, 0.00, -0.00, -1.00, 208.5, 374.8)">e</text><text xml:space="preserve" font-family="Baskerville,Baskerville" font-size="40.0" fill="#72665A" transform="matrix(1.00, 0.00, -0.00, -1.00, 226.0, 374.8)"> </text><text xml:space="preserve" font-family="Baskerville,Baskerville" font-size="40.0" fill="#72665A" transform="matrix(1.00, 0.00, -0.00, -1.00, 236.0, 374.8)">M</text><text xml:space="preserve" font-family="Baskerville,Baskerville" font-size="40.0" fill="#72665A" transform="matrix(1.00, 0.00, -0.00, -1.00, 273.1, 374.8)">a</text><text xml:space="preserve" font-family="Baskerville,Baskerville" font-size="40.0" fill="#72665A" transform="matrix(1.00, 0.00, -0.00, -1.00, 291.9, 374.8)">p</text><text xml:space="preserve" font-family="Baskerville,Baskerville" font-size="40.0" fill="#72665A" transform="matrix(1.00, 0.00, -0.00, -1.00, 312.7, 374.8)">s</text><text xml:space="preserve" font-family="Baskerville,Baskerville" font-size="40.0" fill="#72665A" transform="matrix(1.00, 0.00, -0.00, -1.00, 326.1, 374.8)"> </text><text xml:space="preserve" font-family="Baskerville,Baskerville" font-size="40.0" fill="#72665A" transform="matrix(1.00, 0.00, -0.00, -1.00, 336.1, 374.8)">v</text><text xml:space="preserve" font-family="Baskerville,Baskerville" font-size="40.0" fill="#72665A" transform="matrix(1.00, 0.00, -0.00, -1.00, 354.4, 374.8)">3</text><text xml:space="preserve" font-family="Baskerville,Baskerville" font-size="40.0" fill="#72665A" transform="matrix(1.00, 0.00, -0.00, -1.00, 374.4, 374.8)"> </text><text xml:space="preserve" font-family="Baskerville,Baskerville" font-size="40.0" fill="#72665A" transform="matrix(1.00, 0.00, -0.00, -1.00, 76.0, 289.8)">•</text><text xml:space="preserve" font-family="Baskerville,Baskerville" font-size="40.0" fill="#72665A" transform="matrix(1.00, 0.00, -0.00, -1.00, 109.0, 290.8)">G</text><text xml:space="preserve" font-family="Baskerville,Baskerville" font-size="40.0" fill="#72665A" transform="matrix(1.00, 0.00, -0.00, -1.00, 139.8, 290.8)">o</text><text xml:space="preserve" font-family="Baskerville,Baskerville" font-size="40.0" fill="#72665A" transform="matrix(1.00, 0.00, -0.00, -1.00, 159.8, 290.8)">o</text><text xml:space="preserve" font-family="Baskerville,Baskerville" font-size="40.0" fill="#72665A" transform="matrix(1.00, 0.00, -0.00, -1.00, 179.8, 290.8)">g</text><text xml:space="preserve" font-family="Baskerville,Baskerville" font-size="40.0" fill="#72665A" transform="matrix(1.00, 0.00, -0.00, -1.00, 199.0, 290.8)">l</text><text xml:space="preserve" font-family="Baskerville,Baskerville" font-size="40.0" fill="#72665A" transform="matrix(1.00, 0.00, -0.00, -1.00, 208.5, 290.8)">e</text><text xml:space="preserve" font-family="Baskerville,Baskerville" font-size="40.0" fill="#72665A" transform="matrix(1.00, 0.00, -0.00, -1.00, 226.0, 290.8)"> </text><text xml:space="preserve" font-family="Baskerville,Baskerville" font-size="40.0" fill="#72665A" transform="matrix(1.00, 0.00, -0.00, -1.00, 236.0, 290.8)">C</text><text xml:space="preserve" font-family="Baskerville,Baskerville" font-size="40.0" fill="#72665A" transform="matrix(1.00, 0.00, -0.00, -1.00, 264.8, 290.8)">a</text><text xml:space="preserve" font-family="Baskerville,Baskerville" font-size="40.0" fill="#72665A" transform="matrix(1.00, 0.00, -0.00, -1.00, 283.5, 290.8)">l</text><text xml:space="preserve" font-family="Baskerville,Baskerville" font-size="40.0" fill="#72665A" transform="matrix(1.00, 0.00, -0.00, -1.00, 293.1, 290.8)">e</text><text xml:space="preserve" font-family="Baskerville,Baskerville" font-size="40.0" fill="#72665A" transform="matrix(1.00, 0.00, -0.00, -1.00, 310.6, 290.8)">n</text><text xml:space="preserve" font-family="Baskerville,Baskerville" font-size="40.0" fill="#72665A" transform="matrix(1.00, 0.00, -0.00, -1.00, 331.8, 290.8)">d</text><text xml:space="preserve" font-family="Baskerville,Baskerville" font-size="40.0" fill="#72665A" transform="matrix(1.00, 0.00, -0.00, -1.00, 352.7, 290.8)">a</text><text xml:space="preserve" font-family="Baskerville,Baskerville" font-size="40.0" fill="#72665A" transform="matrix(1.00, 0.00, -0.00, -1.00, 371.4, 290.8)">r</text><text xml:space="preserve" font-family="Baskerville,Baskerville" font-size="40.0" fill="#72665A" transform="matrix(1.00, 0.00, -0.00, -1.00, 386.0, 290.8)"> </text><text xml:space="preserve" font-family="Baskerville,Baskerville" font-size="40.0" fill="#72665A" transform="matrix(1.00, 0.00, -0.00, -1.00, 76.0, 205.8)">•</text><text xml:space="preserve" font-family="Baskerville,Baskerville" font-size="40.0" fill="#72665A" transform="matrix(1.00, 0.00, -0.00, -1.00, 109.0, 206.8)">O</text><text xml:space="preserve" font-family="Baskerville,Baskerville" font-size="40.0" fill="#72665A" transform="matrix(1.00, 0.00, -0.00, -1.00, 139.7, 206.8)">A</text><text xml:space="preserve" font-family="Baskerville,Baskerville" font-size="40.0" fill="#72665A" transform="matrix(1.00, 0.00, -0.00, -1.00, 166.0, 206.8)">u</text><text xml:space="preserve" font-family="Baskerville,Baskerville" font-size="40.0" fill="#72665A" transform="matrix(1.00, 0.00, -0.00, -1.00, 186.8, 206.8)">t</text><text xml:space="preserve" font-family="Baskerville,Baskerville" font-size="40.0" fill="#72665A" transform="matrix(1.00, 0.00, -0.00, -1.00, 198.5, 206.8)">h</text><text xml:space="preserve" font-family="Baskerville,Baskerville" font-size="40.0" fill="#72665A" transform="matrix(1.00, 0.00, -0.00, -1.00, 219.7, 206.8)">2</text><text xml:space="preserve" font-family="Baskerville,Baskerville" font-size="40.0" fill="#72665A" transform="matrix(1.00, 0.00, -0.00, -1.00, 239.7, 206.8)">.</text><text xml:space="preserve" font-family="Baskerville,Baskerville" font-size="40.0" fill="#72665A" transform="matrix(1.00, 0.00, -0.00, -1.00, 249.7, 206.8)">0</text></g></svg>