<?xml version="1.0" encoding="UTF-8" standalone="no"?><svg xmlns="http://www.w3.org/2000/svg" xmlns:xlink="http://www.w3.org/1999/xlink" clip-rule="evenodd" stroke-miterlimit="10" viewBox="0 0 1024 768"><desc>SVG generated by Keynote</desc><defs></defs><g transform="matrix(1.00, 0.00, -0.00, -1.00, 0.0, 768.0)"><g><clipPath id="clip0x600000aa6420"><path d="M 0.0 768.0 L 1024.0 768.0 L 1024.0 0.0 L 0.0 0.0 Z M 0.0 768.0 "></path></clipPath><g clip-path="url(#clip0x600000aa6420)"><image xlink:href="../../2D2B594B-7F15-464B-99AC-93FF53B04B36/assets/96AA4918487AB8DC444008AD0CB975D1.jpeg" width="2048.00" height="1536.00" transform="matrix(0.50, 0.00, -0.00, -0.50, 0.0, 768.0)"></image></g></g><text xml:space="preserve" font-family="Baskerville,Baskerville" font-size="58.0" fill="#817463" transform="matrix(1.00, 0.00, -0.00, -1.00, 397.8, 654.3)">F</text><text xml:space="preserve" font-family="Baskerville,Baskerville" font-size="58.0" fill="#817463" transform="matrix(1.00, 0.00, -0.00, -1.00, 429.8, 654.3)">u</text><text xml:space="preserve" font-family="Baskerville,Baskerville" font-size="58.0" fill="#817463" transform="matrix(1.00, 0.00, -0.00, -1.00, 460.1, 654.3)">n</text><text xml:space="preserve" font-family="Baskerville,Baskerville" font-size="58.0" fill="#817463" transform="matrix(1.00, 0.00, -0.00, -1.00, 490.9, 654.3)">c</text><text xml:space="preserve" font-family="Baskerville,Baskerville" font-size="58.0" fill="#817463" transform="matrix(1.00, 0.00, -0.00, -1.00, 515.7, 654.3)">t</text><text xml:space="preserve" font-family="Baskerville,Baskerville" font-size="58.0" fill="#817463" transform="matrix(1.00, 0.00, -0.00, -1.00, 532.6, 654.3)">i</text><text xml:space="preserve" font-family="Baskerville,Baskerville" font-size="58.0" fill="#817463" transform="matrix(1.00, 0.00, -0.00, -1.00, 547.1, 654.3)">o</text><text xml:space="preserve" font-family="Baskerville,Baskerville" font-size="58.0" fill="#817463" transform="matrix(1.00, 0.00, -0.00, -1.00, 576.1, 654.3)">n</text><text xml:space="preserve" font-family="Baskerville,Baskerville" font-size="58.0" fill="#817463" transform="matrix(1.00, 0.00, -0.00, -1.00, 606.9, 654.3)">s</text><text xml:space="preserve" font-family="Baskerville,Baskerville" font-size="40.0" fill="#72665A" transform="matrix(1.00, 0.00, -0.00, -1.00, 76.0, 468.8)">•</text><text xml:space="preserve" font-family="Baskerville,Baskerville" font-size="40.0" fill="#72665A" transform="matrix(1.00, 0.00, -0.00, -1.00, 109.0, 469.8)">A</text><text xml:space="preserve" font-family="Baskerville,Baskerville" font-size="40.0" fill="#72665A" transform="matrix(1.00, 0.00, -0.00, -1.00, 136.1, 469.8)">l</text><text xml:space="preserve" font-family="Baskerville,Baskerville" font-size="40.0" fill="#72665A" transform="matrix(1.00, 0.00, -0.00, -1.00, 145.7, 469.8)">a</text><text xml:space="preserve" font-family="Baskerville,Baskerville" font-size="40.0" fill="#72665A" transform="matrix(1.00, 0.00, -0.00, -1.00, 164.4, 469.8)">r</text><text xml:space="preserve" font-family="Baskerville,Baskerville" font-size="40.0" fill="#72665A" transform="matrix(1.00, 0.00, -0.00, -1.00, 180.4, 469.8)">m</text><text xml:space="preserve" font-family="Baskerville,Baskerville" font-size="40.0" fill="#72665A" transform="matrix(1.00, 0.00, -0.00, -1.00, 212.5, 469.8)"> </text><text xml:space="preserve" font-family="Baskerville,Baskerville" font-size="40.0" fill="#72665A" transform="matrix(1.00, 0.00, -0.00, -1.00, 76.0, 384.8)">•</text><text xml:space="preserve" font-family="Baskerville,Baskerville" font-size="40.0" fill="#72665A" transform="matrix(1.00, 0.00, -0.00, -1.00, 109.0, 385.8)">T</text><text xml:space="preserve" font-family="Baskerville,Baskerville" font-size="40.0" fill="#72665A" transform="matrix(1.00, 0.00, -0.00, -1.00, 133.9, 385.8)">r</text><text xml:space="preserve" font-family="Baskerville,Baskerville" font-size="40.0" fill="#72665A" transform="matrix(1.00, 0.00, -0.00, -1.00, 148.5, 385.8)">a</text><text xml:space="preserve" font-family="Baskerville,Baskerville" font-size="40.0" fill="#72665A" transform="matrix(1.00, 0.00, -0.00, -1.00, 167.2, 385.8)">f</text><text xml:space="preserve" font-family="Baskerville,Baskerville" font-size="40.0" fill="#72665A" transform="matrix(1.00, 0.00, -0.00, -1.00, 178.1, 385.8)">ﬁ</text><text xml:space="preserve" font-family="Baskerville,Baskerville" font-size="40.0" fill="#72665A" transform="matrix(1.00, 0.00, -0.00, -1.00, 198.5, 385.8)">c</text><text xml:space="preserve" font-family="Baskerville,Baskerville" font-size="40.0" fill="#72665A" transform="matrix(1.00, 0.00, -0.00, -1.00, 215.6, 385.8)">/</text><text xml:space="preserve" font-family="Baskerville,Baskerville" font-size="40.0" fill="#72665A" transform="matrix(1.00, 0.00, -0.00, -1.00, 236.4, 385.8)">M</text><text xml:space="preserve" font-family="Baskerville,Baskerville" font-size="40.0" fill="#72665A" transform="matrix(1.00, 0.00, -0.00, -1.00, 273.5, 385.8)">a</text><text xml:space="preserve" font-family="Baskerville,Baskerville" font-size="40.0" fill="#72665A" transform="matrix(1.00, 0.00, -0.00, -1.00, 292.3, 385.8)">p</text><text xml:space="preserve" font-family="Baskerville,Baskerville" font-size="40.0" fill="#72665A" transform="matrix(1.00, 0.00, -0.00, -1.00, 313.1, 385.8)"> </text><text xml:space="preserve" font-family="Baskerville,Baskerville" font-size="40.0" fill="#72665A" transform="matrix(1.00, 0.00, -0.00, -1.00, 76.0, 300.8)">•</text><text xml:space="preserve" font-family="Baskerville,Baskerville" font-size="40.0" fill="#72665A" transform="matrix(1.00, 0.00, -0.00, -1.00, 109.0, 301.8)">D</text><text xml:space="preserve" font-family="Baskerville,Baskerville" font-size="40.0" fill="#72665A" transform="matrix(1.00, 0.00, -0.00, -1.00, 139.4, 301.8)">i</text><text xml:space="preserve" font-family="Baskerville,Baskerville" font-size="40.0" fill="#72665A" transform="matrix(1.00, 0.00, -0.00, -1.00, 149.4, 301.8)">r</text><text xml:space="preserve" font-family="Baskerville,Baskerville" font-size="40.0" fill="#72665A" transform="matrix(1.00, 0.00, -0.00, -1.00, 163.6, 301.8)">e</text><text xml:space="preserve" font-family="Baskerville,Baskerville" font-size="40.0" fill="#72665A" transform="matrix(1.00, 0.00, -0.00, -1.00, 181.1, 301.8)">c</text><text xml:space="preserve" font-family="Baskerville,Baskerville" font-size="40.0" fill="#72665A" transform="matrix(1.00, 0.00, -0.00, -1.00, 198.2, 301.8)">t</text><text xml:space="preserve" font-family="Baskerville,Baskerville" font-size="40.0" fill="#72665A" transform="matrix(1.00, 0.00, -0.00, -1.00, 209.8, 301.8)">i</text><text xml:space="preserve" font-family="Baskerville,Baskerville" font-size="40.0" fill="#72665A" transform="matrix(1.00, 0.00, -0.00, -1.00, 219.8, 301.8)">o</text><text xml:space="preserve" font-family="Baskerville,Baskerville" font-size="40.0" fill="#72665A" transform="matrix(1.00, 0.00, -0.00, -1.00, 239.8, 301.8)">n</text><text xml:space="preserve" font-family="Baskerville,Baskerville" font-size="40.0" fill="#72665A" transform="matrix(1.00, 0.00, -0.00, -1.00, 261.1, 301.8)">s</text><text xml:space="preserve" font-family="Baskerville,Baskerville" font-size="40.0" fill="#72665A" transform="matrix(1.00, 0.00, -0.00, -1.00, 274.5, 301.8)"> </text><text xml:space="preserve" font-family="Baskerville,Baskerville" font-size="40.0" fill="#72665A" transform="matrix(1.00, 0.00, -0.00, -1.00, 76.0, 216.8)">•</text><text xml:space="preserve" font-family="Baskerville,Baskerville" font-size="40.0" fill="#72665A" transform="matrix(1.00, 0.00, -0.00, -1.00, 109.0, 217.8)">W</text><text xml:space="preserve" font-family="Baskerville,Baskerville" font-size="40.0" fill="#72665A" transform="matrix(1.00, 0.00, -0.00, -1.00, 143.5, 217.8)">e</text><text xml:space="preserve" font-family="Baskerville,Baskerville" font-size="40.0" fill="#72665A" transform="matrix(1.00, 0.00, -0.00, -1.00, 161.0, 217.8)">a</text><text xml:space="preserve" font-family="Baskerville,Baskerville" font-size="40.0" fill="#72665A" transform="matrix(1.00, 0.00, -0.00, -1.00, 179.4, 217.8)">t</text><text xml:space="preserve" font-family="Baskerville,Baskerville" font-size="40.0" fill="#72665A" transform="matrix(1.00, 0.00, -0.00, -1.00, 191.0, 217.8)">h</text><text xml:space="preserve" font-family="Baskerville,Baskerville" font-size="40.0" fill="#72665A" transform="matrix(1.00, 0.00, -0.00, -1.00, 212.3, 217.8)">e</text><text xml:space="preserve" font-family="Baskerville,Baskerville" font-size="40.0" fill="#72665A" transform="matrix(1.00, 0.00, -0.00, -1.00, 229.8, 217.8)">r</text><text xml:space="preserve" font-family="Baskerville,Baskerville" font-size="40.0" fill="#72665A" transform="matrix(1.00, 0.00, -0.00, -1.00, 244.4, 217.8)"> </text><text xml:space="preserve" font-family="Baskerville,Baskerville" font-size="40.0" fill="#72665A" transform="matrix(1.00, 0.00, -0.00, -1.00, 76.0, 132.8)">•</text><text xml:space="preserve" font-family="Baskerville,Baskerville" font-size="40.0" fill="#72665A" transform="matrix(1.00, 0.00, -0.00, -1.00, 109.0, 133.8)">T</text><text xml:space="preserve" font-family="Baskerville,Baskerville" font-size="40.0" fill="#72665A" transform="matrix(1.00, 0.00, -0.00, -1.00, 132.8, 133.8)">o</text><text xml:space="preserve" font-family="Baskerville,Baskerville" font-size="40.0" fill="#72665A" transform="matrix(1.00, 0.00, -0.00, -1.00, 152.8, 133.8)">-</text><text xml:space="preserve" font-family="Baskerville,Baskerville" font-size="40.0" fill="#72665A" transform="matrix(1.00, 0.00, -0.00, -1.00, 165.3, 133.8)">d</text><text xml:space="preserve" font-family="Baskerville,Baskerville" font-size="40.0" fill="#72665A" transform="matrix(1.00, 0.00, -0.00, -1.00, 186.1, 133.8)">o</text><text xml:space="preserve" font-family="Baskerville,Baskerville" font-size="40.0" fill="#72665A" transform="matrix(1.00, 0.00, -0.00, -1.00, 206.1, 133.8)"> </text><text xml:space="preserve" font-family="Baskerville,Baskerville" font-size="40.0" fill="#72665A" transform="matrix(1.00, 0.00, -0.00, -1.00, 216.1, 133.8)">l</text><text xml:space="preserve" font-family="Baskerville,Baskerville" font-size="40.0" fill="#72665A" transform="matrix(1.00, 0.00, -0.00, -1.00, 225.7, 133.8)">i</text><text xml:space="preserve" font-family="Baskerville,Baskerville" font-size="40.0" fill="#72665A" transform="matrix(1.00, 0.00, -0.00, -1.00, 235.7, 133.8)">s</text><text xml:space="preserve" font-family="Baskerville,Baskerville" font-size="40.0" fill="#72665A" transform="matrix(1.00, 0.00, -0.00, -1.00, 249.1, 133.8)">t</text><text xml:space="preserve" font-family="Baskerville,Baskerville" font-size="40.0" fill="#72665A" transform="matrix(1.00, 0.00, -0.00, -1.00, 260.7, 133.8)">/</text><text xml:space="preserve" font-family="Baskerville,Baskerville" font-size="40.0" fill="#72665A" transform="matrix(1.00, 0.00, -0.00, -1.00, 281.6, 133.8)">C</text><text xml:space="preserve" font-family="Baskerville,Baskerville" font-size="40.0" fill="#72665A" transform="matrix(1.00, 0.00, -0.00, -1.00, 310.3, 133.8)">a</text><text xml:space="preserve" font-family="Baskerville,Baskerville" font-size="40.0" fill="#72665A" transform="matrix(1.00, 0.00, -0.00, -1.00, 329.0, 133.8)">l</text><text xml:space="preserve" font-family="Baskerville,Baskerville" font-size="40.0" fill="#72665A" transform="matrix(1.00, 0.00, -0.00, -1.00, 338.6, 133.8)">e</text><text xml:space="preserve" font-family="Baskerville,Baskerville" font-size="40.0" fill="#72665A" transform="matrix(1.00, 0.00, -0.00, -1.00, 356.1, 133.8)">n</text><text xml:space="preserve" font-family="Baskerville,Baskerville" font-size="40.0" fill="#72665A" transform="matrix(1.00, 0.00, -0.00, -1.00, 377.4, 133.8)">d</text><text xml:space="preserve" font-family="Baskerville,Baskerville" font-size="40.0" fill="#72665A" transform="matrix(1.00, 0.00, -0.00, -1.00, 398.2, 133.8)">a</text><text xml:space="preserve" font-family="Baskerville,Baskerville" font-size="40.0" fill="#72665A" transform="matrix(1.00, 0.00, -0.00, -1.00, 416.9, 133.8)">r</text><text xml:space="preserve" font-family="Baskerville,Baskerville" font-size="40.0" fill="#72665A" transform="matrix(1.00, 0.00, -0.00, -1.00, 431.5, 133.8)"> </text><text xml:space="preserve" font-family="Baskerville,Baskerville" font-size="40.0" fill="#72665A" transform="matrix(1.00, 0.00, -0.00, -1.00, 441.5, 133.8)">E</text><text xml:space="preserve" font-family="Baskerville,Baskerville" font-size="40.0" fill="#72665A" transform="matrix(1.00, 0.00, -0.00, -1.00, 466.5, 133.8)">v</text><text xml:space="preserve" font-family="Baskerville,Baskerville" font-size="40.0" fill="#72665A" transform="matrix(1.00, 0.00, -0.00, -1.00, 484.1, 133.8)">e</text><text xml:space="preserve" font-family="Baskerville,Baskerville" font-size="40.0" fill="#72665A" transform="matrix(1.00, 0.00, -0.00, -1.00, 501.6, 133.8)">n</text><text xml:space="preserve" font-family="Baskerville,Baskerville" font-size="40.0" fill="#72665A" transform="matrix(1.00, 0.00, -0.00, -1.00, 522.8, 133.8)">t</text><text xml:space="preserve" font-family="Baskerville,Baskerville" font-size="40.0" fill="#72665A" transform="matrix(1.00, 0.00, -0.00, -1.00, 534.5, 133.8)">s</text></g></svg>